<svg xmlns="http://www.w3.org/2000/svg" xmlns:xlink="http://www.w3.org/1999/xlink" viewBox="0 0 40 41"><path d="M 8 40.629 C 3.582 40.629 0 40.629 0 40.629 L 0 0.629 C 0 0.629 3.582 0.629 8 0.629 L 32 0.629 C 36.418 0.629 40 0.629 40 0.629 L 40 40.629 C 40 40.629 36.418 40.629 32 40.629 Z" fill="rgb(36, 72, 217)"></path><path d="M 11.815 13.238 C 8.983 14.483 7 17.353 7 20.696 C 7 24.039 8.983 26.907 11.815 28.154 Z" fill="rgb(0,0,0)"></path><path d="M 28.318 13.238 C 31.15 14.483 33.133 17.353 33.133 20.696 C 33.133 24.039 31.15 26.907 28.318 28.154 Z" fill="rgb(0,0,0)"></path><path d="M 27.525 12.443 C 26.28 9.611 23.41 7.629 20.066 7.629 C 16.722 7.629 13.854 9.611 12.609 12.443 Z" fill="rgb(0,0,0)"></path><path d="M 12.608 28.922 C 13.852 31.754 16.723 33.736 20.067 33.736 C 23.41 33.736 26.279 31.754 27.523 28.922 Z" fill="rgb(0,0,0)"></path></svg>