<svg xmlns="http://www.w3.org/2000/svg" xmlns:xlink="http://www.w3.org/1999/xlink" viewBox="0 0 40 41"><path d="M 8 40.629 C 3.582 40.629 0 40.629 0 40.629 L 0 0.629 C 0 0.629 3.582 0.629 8 0.629 L 32 0.629 C 36.418 0.629 40 0.629 40 0.629 L 40 40.629 C 40 40.629 36.418 40.629 32 40.629 Z" fill="rgb(255,77,18)"></path><path d="M 16.758 18.286 C 16.066 14.385 13.477 11.157 10 9.629 L 10 31.133 C 13.477 29.602 16.066 26.377 16.758 22.476 L 16.758 31.133 C 20.458 29.507 23.152 25.956 23.625 21.716 L 23.625 31.133 C 27.708 29.339 30.566 25.2 30.566 20.379 C 30.566 15.559 27.708 11.423 23.625 9.629 L 23.625 19.043 C 23.152 14.804 20.458 11.255 16.758 9.629 Z" fill="rgb(0,0,0)"></path></svg>