<svg xmlns="http://www.w3.org/2000/svg" xmlns:xlink="http://www.w3.org/1999/xlink" viewBox="0 0 40 41"><path d="M 8 40.629 C 3.582 40.629 0 40.629 0 40.629 L 0 0.629 C 0 0.629 3.582 0.629 8 0.629 L 32 0.629 C 36.418 0.629 40 0.629 40 0.629 L 40 40.629 C 40 40.629 36.418 40.629 32 40.629 Z" fill="rgb(251,186,16)"></path><path d="M 20.5 30.629 C 15.253 30.629 11 26.376 11 21.129 C 11 21.129 15.253 21.129 20.5 21.129 C 25.747 21.129 30 21.129 30 21.129 C 30 26.376 25.747 30.629 20.5 30.629 Z" fill="rgb(0,0,0)"></path><path d="M 20.5 21.129 C 15.253 21.129 11 16.876 11 11.629 C 11 11.629 15.253 11.629 20.5 11.629 C 25.747 11.629 30 11.629 30 11.629 C 30 16.876 25.747 21.129 20.5 21.129 Z" fill="rgb(0,0,0)"></path></svg>